####
#
# OBJ File Generated by Meshlab
#
####
# Object l_distal_collision.obj
#
# Vertices: 32
# Faces: 60
#
####
vn 2.391475 2.491092 -1.100584
v 0.036380 0.017847 0.011026
vn -2.069035 1.398276 -3.731595
v 0.002951 0.004265 -0.003993
vn -2.350229 3.301487 -1.210165
v -0.002424 0.017833 0.011151
vn 2.159199 1.386034 -3.468630
v 0.032620 0.004283 -0.003981
vn -2.378478 2.073781 1.371993
v -0.002503 0.017871 0.036546
vn -4.456155 1.628037 -2.092149
v -0.002919 0.015538 0.009478
vn -6.223726 -0.200117 0.503567
v -0.002750 0.011350 0.032916
vn 1.843047 -4.597374 2.993444
v 0.009638 -0.014004 0.031913
vn 1.138612 -5.063960 1.710531
v 0.007689 -0.015449 0.030469
vn 4.039080 -3.530354 0.941384
v 0.032674 -0.003855 0.019857
vn 6.244551 -0.540817 -0.134771
v 0.036250 0.012687 0.015595
vn 5.675227 -1.312461 -0.994311
v 0.034011 -0.001347 -0.000573
vn 5.384237 -1.419895 1.496540
v 0.036282 0.011593 0.034133
vn -0.357613 -2.125738 5.294293
v 0.004075 -0.008217 0.037696
vn 0.897116 2.206777 2.772367
v 0.032020 0.017863 0.039139
vn -0.878525 2.354079 2.828318
v 0.001313 0.017858 0.039126
vn 2.056257 -1.753425 5.346793
v 0.032737 0.011399 0.037862
vn -2.384548 -3.698602 1.372991
v 0.000491 -0.014791 0.031126
vn -2.749634 -4.798531 -1.599902
v -0.000866 -0.011763 0.019984
vn -0.232660 -4.978612 0.876790
v 0.004730 -0.016070 0.029840
vn 2.522908 2.099055 1.352098
v 0.036134 0.017764 0.036123
vn 2.481467 -3.716981 -1.792158
v 0.032602 -0.003892 -0.001903
vn -5.218272 -2.304016 -0.749131
v -0.001698 -0.010810 0.019927
vn -4.119141 -1.922574 2.375302
v -0.001107 -0.010461 0.034381
vn -2.343428 -3.680584 -2.691706
v 0.002813 -0.003761 -0.002193
vn 2.223468 -1.479058 -3.389512
v 0.032725 -0.002028 -0.003889
vn 3.741251 -2.010874 3.746309
v 0.034734 0.011306 0.036711
vn 1.830401 -3.963166 4.035018
v 0.010283 -0.011594 0.034321
vn -5.474669 -1.571877 -1.487046
v -0.001755 -0.003687 0.008224
vn 0.977555 -2.987188 5.052192
v 0.008512 -0.009163 0.036752
vn -2.159768 -1.422537 -3.602263
v 0.002950 -0.002019 -0.003990
vn -1.992364 -2.169126 4.538026
v 0.001055 -0.009200 0.036719
# 32 vertices, 0 vertices normals

f 1//1 2//2 3//3
f 4//4 2//2 1//1
f 5//5 6//6 7//7
f 8//8 9//9 10//10
f 11//11 12//12 1//1
f 13//13 12//12 11//11
f 1//1 13//13 11//11
f 14//14 15//15 16//16
f 14//14 17//17 15//15
f 18//18 19//19 20//20
f 6//6 3//3 2//2
f 1//1 15//15 21//21
f 22//22 9//9 20//20
f 22//22 10//10 9//9
f 10//10 12//12 13//13
f 10//10 22//22 12//12
f 6//6 23//23 7//7
f 24//24 7//7 23//23
f 19//19 23//23 25//25
f 20//20 19//19 25//25
f 25//25 22//22 20//20
f 18//18 20//20 9//9
f 6//6 5//5 3//3
f 2//2 4//4 26//26
f 26//26 12//12 22//22
f 13//13 27//27 10//10
f 28//28 8//8 10//10
f 27//27 28//28 10//10
f 27//27 21//21 15//15
f 19//19 18//18 23//23
f 23//23 18//18 24//24
f 29//29 23//23 6//6
f 29//29 25//25 23//23
f 21//21 13//13 1//1
f 30//30 8//8 28//28
f 13//13 21//21 27//27
f 17//17 28//28 27//27
f 17//17 27//27 15//15
f 29//29 31//31 25//25
f 18//18 32//32 24//24
f 1//1 12//12 4//4
f 4//4 12//12 26//26
f 16//16 1//1 3//3
f 16//16 3//3 5//5
f 16//16 15//15 1//1
f 32//32 18//18 9//9
f 9//9 8//8 32//32
f 8//8 30//30 32//32
f 32//32 30//30 14//14
f 17//17 30//30 28//28
f 30//30 17//17 14//14
f 31//31 2//2 26//26
f 32//32 14//14 16//16
f 32//32 16//16 5//5
f 32//32 5//5 24//24
f 22//22 31//31 26//26
f 31//31 22//22 25//25
f 6//6 2//2 31//31
f 31//31 29//29 6//6
f 7//7 24//24 5//5
# 60 faces, 0 coords texture

# End of File
