####
#
# OBJ File Generated by Meshlab
#
####
# Object l_proximal_collision.obj
#
# Vertices: 27
# Faces: 50
#
####
vn 3.559188 2.505013 1.147876
v 0.035003 0.003468 0.061569
vn 4.143047 1.897000 -1.486199
v 0.038600 0.001935 -0.000778
vn 1.904035 5.181372 -0.980613
v 0.030821 0.007990 0.000429
vn -4.441203 -3.111533 -1.041779
v 0.003029 -0.007909 0.003370
vn -2.701621 1.311439 -2.552191
v 0.003126 0.001396 -0.003501
vn -2.076541 -2.384550 -3.475415
v 0.008096 -0.009521 -0.004670
vn -3.102887 -3.419600 1.848705
v 0.002799 -0.007716 0.060467
vn -5.441071 -2.048579 0.381361
v -0.001479 -0.002835 0.051613
vn 1.157203 1.077962 -3.616787
v 0.030231 0.002600 -0.009172
vn 4.424083 -1.472383 -1.895822
v 0.038605 -0.001747 -0.000871
vn -3.553998 2.594040 -0.507340
v -0.001488 0.003688 0.016558
vn -5.482581 -1.970336 -0.258610
v -0.001561 -0.002685 0.021213
vn 4.222279 -4.291343 -0.257552
v 0.034980 -0.007985 0.007724
vn 1.312048 -3.627312 -2.389702
v 0.027739 -0.011995 -0.003485
vn -3.028571 1.989431 1.079501
v -0.001501 0.003693 0.058035
vn -1.697264 -3.600667 3.357071
v 0.011562 -0.004486 0.072600
vn -1.660397 0.292721 3.945070
v 0.011693 0.000528 0.075485
vn -1.422098 -5.175466 -1.490458
v 0.010222 -0.012000 -0.001639
vn -1.269070 -5.746281 0.688489
v 0.010305 -0.011997 0.050127
vn -1.701351 5.556163 -1.453838
v 0.007959 0.005247 0.000835
vn 3.120629 -2.598957 1.446474
v 0.034943 -0.007860 0.061163
vn 1.670601 -3.044348 3.406621
v 0.026403 -0.004163 0.073442
vn 1.276160 -5.745724 0.685379
v 0.027847 -0.011956 0.050288
vn -1.468488 4.259050 2.450039
v 0.011685 0.004917 0.071971
vn 1.516557 3.894009 2.496315
v 0.026029 0.004888 0.072525
vn -0.228086 5.226398 -2.006965
v 0.025192 0.008118 -0.002147
vn 1.911402 0.484712 4.125466
v 0.026302 0.000662 0.075252
# 27 vertices, 0 vertices normals

f 1//1 2//2 3//3
f 4//4 5//5 6//6
f 7//7 8//8 4//4
f 2//2 9//9 3//3
f 9//9 2//2 10//10
f 11//11 5//5 12//12
f 12//12 5//5 4//4
f 8//8 12//12 4//4
f 10//10 13//13 14//14
f 15//15 11//11 12//12
f 16//16 17//17 7//7
f 4//4 18//18 7//7
f 6//6 18//18 4//4
f 14//14 18//18 6//6
f 7//7 18//18 19//19
f 18//18 14//14 19//19
f 5//5 9//9 6//6
f 20//20 5//5 11//11
f 8//8 15//15 12//12
f 21//21 22//22 23//23
f 17//17 15//15 7//7
f 14//14 9//9 10//10
f 23//23 22//22 16//16
f 7//7 15//15 8//8
f 17//17 24//24 15//15
f 24//24 25//25 3//3
f 1//1 10//10 2//2
f 21//21 10//10 1//1
f 13//13 23//23 14//14
f 20//20 26//26 5//5
f 5//5 26//26 9//9
f 9//9 14//14 6//6
f 16//16 19//19 23//23
f 16//16 7//7 19//19
f 20//20 11//11 15//15
f 25//25 27//27 1//1
f 21//21 23//23 13//13
f 24//24 17//17 25//25
f 27//27 21//21 1//1
f 10//10 21//21 13//13
f 15//15 26//26 20//20
f 26//26 15//15 24//24
f 26//26 24//24 3//3
f 9//9 26//26 3//3
f 16//16 22//22 17//17
f 27//27 22//22 21//21
f 22//22 27//27 17//17
f 27//27 25//25 17//17
f 1//1 3//3 25//25
f 23//23 19//19 14//14
# 50 faces, 0 coords texture

# End of File
