####
#
# OBJ File Generated by Meshlab
#
####
# Object r_distal_collision.obj
#
# Vertices: 27
# Faces: 50
#
####
vn 1.362350 -4.501446 -3.316416
v 0.035509 -0.017720 0.010912
vn -1.193912 -4.392049 -3.822324
v -0.001750 -0.017556 0.010706
vn 2.190347 -1.380573 -3.440244
v 0.032624 -0.004339 -0.003938
vn -4.854424 -0.938610 -1.966453
v -0.002802 -0.014022 0.008873
vn -2.070063 -1.397849 -3.769229
v 0.002913 -0.004175 -0.003980
vn 6.222515 0.646208 -0.046795
v 0.036250 -0.011350 0.016187
vn 5.145080 -1.288434 -1.740457
v 0.036332 -0.014889 0.009381
vn 5.855124 1.131777 -0.946200
v 0.033843 0.001006 -0.000439
vn 5.458422 1.511359 1.389134
v 0.036250 -0.011350 0.032916
vn -2.434791 3.529618 -1.168912
v 0.002933 0.003999 -0.001644
vn -2.162076 1.597040 -3.000576
v 0.002872 0.002306 -0.003946
vn -6.079388 1.161736 -0.097893
v -0.002750 -0.011350 0.016000
vn -2.542083 -3.055260 -1.133699
v -0.002372 -0.017843 0.011264
vn 2.657819 -3.305314 -1.023910
v 0.035836 -0.017840 0.011259
vn -0.771585 4.233077 4.265228
v 0.001834 -0.009258 0.036835
vn -2.296886 3.810653 1.125037
v 0.002911 0.004007 0.019967
vn -2.304641 2.043619 3.876229
v -0.000136 -0.010924 0.037899
vn 2.383872 3.527099 1.129121
v 0.032616 0.004000 0.019958
vn 2.171247 3.349465 -1.531869
v 0.032556 0.003998 -0.002180
vn 2.329556 1.280063 -3.498450
v 0.032600 0.001898 -0.003988
vn -2.186143 -1.844958 1.416189
v -0.002717 -0.017868 0.036703
vn -5.347909 1.717111 1.274979
v -0.002753 -0.011366 0.033315
vn 0.468677 4.230947 4.416368
v 0.030941 -0.009371 0.036925
vn 2.258976 2.089181 3.949336
v 0.033317 -0.010862 0.037888
vn -0.613399 -2.197670 3.839993
v 0.002250 -0.017259 0.039091
vn 0.803042 -2.121871 2.742984
v 0.032065 -0.017880 0.039213
vn 2.610233 -1.956115 1.327061
v 0.036236 -0.017643 0.036129
# 27 vertices, 0 vertices normals

f 1//1 2//2 3//3
f 2//2 4//4 5//5
f 6//6 7//7 8//8
f 9//9 6//6 8//8
f 4//4 10//10 11//11
f 12//12 10//10 4//4
f 1//1 13//13 2//2
f 2//2 13//13 4//4
f 13//13 1//1 14//14
f 2//2 5//5 3//3
f 15//15 16//16 17//17
f 11//11 5//5 4//4
f 1//1 7//7 14//14
f 3//3 7//7 1//1
f 8//8 7//7 3//3
f 8//8 18//18 9//9
f 18//18 8//8 19//19
f 20//20 3//3 5//5
f 20//20 5//5 11//11
f 18//18 19//19 16//16
f 19//19 10//10 16//16
f 21//21 4//4 13//13
f 4//4 22//22 12//12
f 21//21 22//22 4//4
f 22//22 16//16 12//12
f 16//16 10//10 12//12
f 23//23 24//24 18//18
f 15//15 18//18 16//16
f 15//15 17//17 23//23
f 17//17 25//25 26//26
f 17//17 16//16 22//22
f 21//21 25//25 17//17
f 26//26 25//25 21//21
f 27//27 26//26 14//14
f 9//9 27//27 6//6
f 27//27 7//7 6//6
f 27//27 14//14 7//7
f 19//19 20//20 11//11
f 19//19 8//8 20//20
f 20//20 8//8 3//3
f 17//17 22//22 21//21
f 24//24 17//17 26//26
f 17//17 24//24 23//23
f 15//15 23//23 18//18
f 19//19 11//11 10//10
f 13//13 14//14 26//26
f 24//24 9//9 18//18
f 26//26 21//21 13//13
f 24//24 27//27 9//9
f 27//27 24//24 26//26
# 50 faces, 0 coords texture

# End of File
