####
#
# OBJ File Generated by Meshlab
#
####
# Object r_proximal_collision.obj
#
# Vertices: 27
# Faces: 50
#
####
vn -4.558513 -2.180391 -0.528215
v -0.001490 -0.003361 0.016674
vn -1.562486 -3.033347 -2.190545
v 0.007379 -0.008150 -0.003167
vn -3.107926 -1.999638 1.221733
v -0.001456 -0.003672 0.058214
vn 1.227868 2.713677 -2.549207
v 0.028707 0.011438 -0.004544
vn 1.280311 5.731417 0.663245
v 0.027844 0.011978 0.050084
vn 4.236738 4.220975 -0.479751
v 0.034938 0.007889 0.003543
vn 0.079379 -2.324095 -4.447184
v 0.015390 -0.004941 -0.006434
vn 1.624169 -2.658782 -3.077458
v 0.033358 -0.003607 -0.003548
vn -2.140850 1.891662 -3.373811
v 0.007554 0.008347 -0.005444
vn -4.467155 3.602133 -0.737514
v 0.003159 0.007967 0.007438
vn -5.319816 2.003871 0.674527
v -0.001446 0.002928 0.053863
vn -3.052787 3.601506 1.846319
v 0.002938 0.007826 0.059974
vn -5.466950 2.042972 -0.237092
v -0.001488 0.002781 0.022046
vn 3.095023 -1.689207 -1.758740
v 0.038547 -0.001861 -0.000937
vn 4.025079 1.082220 -2.243792
v 0.038565 0.001728 -0.000757
vn 3.087688 2.306664 1.462832
v 0.035029 0.007761 0.061248
vn 3.538463 -2.956304 0.802200
v 0.034768 -0.003725 0.057939
vn 1.676033 -4.865460 1.804079
v 0.026500 -0.004929 0.071337
vn 2.364424 -5.599816 -0.026393
v 0.034797 -0.004489 0.012783
vn -1.274091 5.741919 0.674855
v 0.010184 0.011979 0.049868
vn -1.528832 4.912499 -1.586223
v 0.010227 0.011986 -0.001644
vn -1.014631 0.917323 2.881046
v 0.013022 0.003072 0.076501
vn -1.600528 -4.073910 2.517933
v 0.011500 -0.005015 0.070390
vn 0.707016 -5.910006 -1.103687
v 0.013500 -0.008017 -0.000939
vn 1.968736 -2.176231 3.456557
v 0.026553 -0.003320 0.073891
vn -4.253788 -0.301565 -2.778268
v 0.002678 -0.000230 -0.001945
vn 1.794309 1.943066 3.105241
v 0.026872 0.003854 0.074303
# 27 vertices, 0 vertices normals

f 1//1 2//2 3//3
f 4//4 5//5 6//6
f 7//7 4//4 8//8
f 7//7 9//9 4//4
f 10//10 11//11 12//12
f 10//10 13//13 11//11
f 8//8 4//4 14//14
f 15//15 16//16 14//14
f 17//17 18//18 19//19
f 20//20 10//10 12//12
f 20//20 21//21 10//10
f 15//15 6//6 16//16
f 3//3 22//22 12//12
f 23//23 22//22 3//3
f 3//3 13//13 1//1
f 2//2 9//9 7//7
f 9//9 10//10 21//21
f 23//23 24//24 18//18
f 23//23 25//25 22//22
f 15//15 14//14 4//4
f 15//15 4//4 6//6
f 24//24 23//23 2//2
f 2//2 23//23 3//3
f 17//17 16//16 25//25
f 14//14 16//16 17//17
f 14//14 17//17 19//19
f 14//14 19//19 8//8
f 4//4 21//21 20//20
f 11//11 3//3 12//12
f 2//2 26//26 9//9
f 17//17 25//25 18//18
f 16//16 27//27 25//25
f 16//16 6//6 5//5
f 13//13 3//3 11//11
f 21//21 4//4 9//9
f 26//26 13//13 10//10
f 10//10 9//9 26//26
f 1//1 13//13 26//26
f 22//22 25//25 27//27
f 5//5 27//27 16//16
f 8//8 24//24 7//7
f 24//24 2//2 7//7
f 8//8 19//19 24//24
f 24//24 19//19 18//18
f 27//27 5//5 22//22
f 22//22 5//5 20//20
f 26//26 2//2 1//1
f 22//22 20//20 12//12
f 25//25 23//23 18//18
f 4//4 20//20 5//5
# 50 faces, 0 coords texture

# End of File
