####
#
# OBJ File Generated by Meshlab
#
####
# Object arm_flex_collision.obj
#
# Vertices: 63
# Faces: 122
#
####
vn 2.881511 -1.181393 -5.129758
v 0.018915 -0.035430 -0.031495
vn 1.059881 -1.155278 -5.704710
v 0.007158 -0.034866 -0.036175
vn 1.758598 2.579859 -3.482913
v 0.017432 0.044143 -0.032565
vn -5.002475 -1.531371 -2.686742
v -0.031981 -0.036996 -0.017289
vn -5.945288 -0.704629 -1.086510
v -0.036155 -0.034085 -0.006118
vn -3.745854 2.430167 -2.412593
v -0.031489 0.043753 -0.018791
vn -4.769629 0.358872 2.473384
v -0.038844 0.043478 0.233880
vn -5.072865 2.516720 -0.108851
v -0.037528 0.058063 0.110665
vn -6.193246 -0.689232 -0.055662
v -0.038808 -0.029991 0.108924
vn 4.882192 2.008806 -1.235579
v 0.037006 0.042785 -0.007010
vn 4.263138 0.017912 2.887003
v 0.037448 0.003654 0.234276
vn 5.516297 -1.677689 -0.757730
v 0.036402 -0.036630 -0.005509
vn 0.703454 -2.455324 4.888791
v 0.025008 -0.046003 0.235899
vn 1.471643 -5.004597 1.756659
v 0.025519 -0.047878 0.233589
vn 3.187889 -2.954879 2.229660
v 0.032803 -0.043458 0.234316
vn 0.034779 -4.913911 2.514537
v 0.002684 -0.049051 0.233794
vn -0.903695 -5.962353 -0.950824
v -0.016217 -0.048868 -0.016959
vn 0.830488 -6.014438 -0.863906
v 0.014809 -0.048789 -0.017275
vn -2.533141 -1.929089 -4.704452
v -0.017972 -0.038887 -0.031426
vn -1.227436 2.501104 -4.275118
v -0.009498 0.043194 -0.035391
vn -1.057553 -1.129518 -5.767628
v -0.006397 -0.035645 -0.035911
vn 0.437952 -5.326164 -2.611295
v 0.004858 -0.047086 -0.028343
vn 2.510081 -4.555522 -2.645487
v 0.020988 -0.045746 -0.022710
vn -3.485449 2.664211 1.910130
v -0.036484 0.054920 0.233723
vn -2.252860 0.915362 4.969795
v -0.035472 0.051425 0.235951
vn 3.088365 -4.759951 -0.506432
v 0.029446 -0.046320 -0.007137
vn -5.151484 1.919804 -1.144368
v -0.036104 0.043193 -0.006335
vn -0.238938 -3.578178 -4.575445
v -0.001420 -0.043624 -0.033173
vn 1.809991 -3.677885 -4.179526
v 0.013352 -0.043709 -0.030261
vn -4.386817 -0.461618 -4.271088
v -0.026361 -0.031821 -0.025491
vn -2.226159 2.648705 -3.305562
v -0.020899 0.044057 -0.029993
vn -0.802014 -5.101277 2.047825
v -0.024983 -0.048206 0.233907
vn -3.206565 -4.344919 -2.029480
v -0.026374 -0.045723 -0.016771
vn -1.223489 -4.974795 -2.855999
v -0.011896 -0.046871 -0.026661
vn -3.478800 -2.901402 -3.793784
v -0.022463 -0.040842 -0.026702
vn -5.009973 -0.333806 2.313510
v -0.038352 -0.032022 0.234584
vn 4.770018 -0.891224 2.186135
v 0.036485 -0.035247 0.234158
vn 0.020950 4.301428 2.984615
v -0.002643 0.060337 0.234270
vn 1.642246 4.415047 2.011937
v 0.029821 0.058865 0.233578
vn 2.441791 5.135041 0.153492
v 0.029862 0.062311 0.169443
vn -3.148932 -3.896808 1.703162
v -0.032416 -0.045568 0.233375
vn -2.675425 -5.246520 -0.460762
v -0.027636 -0.047256 -0.006039
vn 5.256290 -0.974105 -2.735316
v 0.033118 -0.034178 -0.016678
vn 4.149401 1.553125 1.987648
v 0.036269 0.052774 0.233388
vn 0.176551 2.723555 -3.841079
v 0.001303 0.044196 -0.036520
vn -0.964249 5.915178 -0.878610
v -0.022530 0.064657 0.034859
vn 1.673547 5.539721 -0.942571
v 0.025353 0.064528 0.037724
vn -0.946147 6.117433 0.245218
v -0.025419 0.062433 0.182877
vn 0.005589 6.261983 -0.170875
v -0.000637 0.065532 0.045660
vn 3.925097 -1.643096 -4.015994
v 0.025326 -0.036972 -0.026504
vn -5.061677 -2.882615 -0.750777
v -0.034632 -0.040766 -0.004760
vn -0.914746 3.357746 2.870003
v -0.028456 0.058941 0.234992
vn -2.387995 5.354569 0.098343
v -0.032216 0.062803 0.127664
vn 3.411536 2.470624 -2.613929
v 0.030472 0.043727 -0.021335
vn -2.881226 -1.149284 2.793583
v -0.037167 -0.037872 0.235544
vn -1.016909 -2.429543 4.516337
v -0.027960 -0.045901 0.235930
vn -3.380721 4.548021 -0.821579
v -0.028401 0.062540 0.033616
vn 4.240397 -3.500329 -2.093604
v 0.030442 -0.043083 -0.014344
vn 3.998168 4.185579 -0.353303
v 0.033562 0.061157 0.047062
vn 5.904937 1.520466 -0.081979
v 0.036723 0.055044 0.050789
vn 2.390866 -1.006268 4.831706
v 0.033912 -0.038221 0.235938
vn 1.943629 2.054991 3.989281
v 0.032108 0.055592 0.235936
vn -4.826785 -3.313437 -0.046156
v -0.035802 -0.042418 0.104314
# 63 vertices, 0 vertices normals

f 1//1 2//2 3//3
f 4//4 5//5 6//6
f 7//7 8//8 9//9
f 10//10 11//11 12//12
f 13//13 14//14 15//15
f 16//16 17//17 18//18
f 19//19 20//20 21//21
f 22//22 23//23 18//18
f 8//8 7//7 24//24
f 24//24 7//7 25//25
f 15//15 14//14 26//26
f 8//8 27//27 9//9
f 6//6 5//5 27//27
f 28//28 2//2 29//29
f 19//19 30//30 31//31
f 32//32 17//17 16//16
f 31//31 30//30 6//6
f 17//17 33//33 34//34
f 34//34 33//33 35//35
f 13//13 16//16 14//14
f 7//7 9//9 36//36
f 17//17 22//22 18//18
f 11//11 37//37 12//12
f 38//38 39//39 40//40
f 32//32 41//41 42//42
f 10//10 12//12 43//43
f 39//39 44//44 40//40
f 34//34 28//28 22//22
f 45//45 46//46 47//47
f 7//7 36//36 25//25
f 48//48 40//40 49//49
f 1//1 3//3 50//50
f 5//5 51//51 9//9
f 52//52 24//24 25//25
f 24//24 52//52 53//53
f 4//4 6//6 30//30
f 29//29 2//2 1//1
f 43//43 54//54 10//10
f 47//47 46//46 49//49
f 55//55 41//41 56//56
f 18//18 23//23 26//26
f 4//4 51//51 5//5
f 43//43 50//50 54//54
f 53//53 48//48 49//49
f 57//57 6//6 27//27
f 6//6 57//57 31//31
f 53//53 8//8 24//24
f 57//57 27//27 8//8
f 50//50 58//58 23//23
f 10//10 59//59 60//60
f 13//13 56//56 16//16
f 37//37 15//15 12//12
f 28//28 29//29 22//22
f 2//2 21//21 45//45
f 28//28 34//34 19//19
f 4//4 33//33 51//51
f 55//55 13//13 61//61
f 48//48 52//52 38//38
f 61//61 25//25 55//55
f 34//34 22//22 17//17
f 10//10 47//47 59//59
f 10//10 54//54 47//47
f 35//35 4//4 30//30
f 23//23 58//58 26//26
f 38//38 40//40 48//48
f 2//2 28//28 21//21
f 44//44 10//10 60//60
f 39//39 38//38 62//62
f 18//18 14//14 16//16
f 2//2 45//45 3//3
f 38//38 52//52 62//62
f 49//49 40//40 47//47
f 50//50 23//23 29//29
f 59//59 47//47 40//40
f 3//3 54//54 50//50
f 62//62 52//52 25//25
f 41//41 55//55 63//63
f 56//56 13//13 55//55
f 45//45 31//31 46//46
f 45//45 20//20 31//31
f 3//3 45//45 47//47
f 44//44 59//59 40//40
f 61//61 62//62 25//25
f 53//53 52//52 48//48
f 3//3 47//47 54//54
f 51//51 63//63 9//9
f 46//46 57//57 53//53
f 32//32 56//56 41//41
f 46//46 53//53 49//49
f 32//32 42//42 17//17
f 35//35 30//30 19//19
f 59//59 44//44 60//60
f 37//37 11//11 61//61
f 62//62 11//11 44//44
f 33//33 42//42 51//51
f 61//61 11//11 62//62
f 57//57 8//8 53//53
f 11//11 10//10 44//44
f 37//37 61//61 15//15
f 39//39 62//62 44//44
f 42//42 41//41 63//63
f 27//27 5//5 9//9
f 58//58 43//43 12//12
f 56//56 32//32 16//16
f 51//51 42//42 63//63
f 9//9 55//55 36//36
f 55//55 9//9 63//63
f 35//35 33//33 4//4
f 31//31 57//57 46//46
f 61//61 13//13 15//15
f 21//21 20//20 45//45
f 17//17 42//42 33//33
f 55//55 25//25 36//36
f 22//22 29//29 23//23
f 12//12 26//26 58//58
f 12//12 15//15 26//26
f 43//43 58//58 50//50
f 20//20 19//19 31//31
f 50//50 29//29 1//1
f 26//26 14//14 18//18
f 35//35 19//19 34//34
f 28//28 19//19 21//21
# 122 faces, 0 coords texture

# End of File
