####
#
# OBJ File Generated by Meshlab
#
####
# Object arm_flex_light_collision.obj
#
# Vertices: 10
# Faces: 16
#
####
vn 1.840165 1.514152 -1.988822
v 0.037755 0.045138 -0.037494
vn 2.846600 3.084433 -0.377780
v 0.037755 0.066610 0.040282
vn 1.570796 -1.570796 -1.570796
v 0.037755 -0.049401 -0.037494
vn 1.596420 1.570281 1.611041
v 0.037755 0.061560 0.237344
vn 1.570796 -1.570796 1.570796
v 0.037755 -0.049401 0.237344
vn -1.570796 -1.570796 1.570796
v -0.039053 -0.049401 0.237344
vn -1.570796 -1.570796 -1.570796
v -0.039053 -0.049401 -0.037494
vn -1.596420 1.570281 1.611041
v -0.039053 0.061560 0.237344
vn -2.846600 3.084433 -0.377780
v -0.039053 0.066610 0.040282
vn -1.840165 1.514152 -1.988822
v -0.039053 0.045138 -0.037494
# 10 vertices, 0 vertices normals

f 1//1 2//2 3//3
f 3//3 4//4 5//5
f 3//3 2//2 4//4
f 3//3 6//6 7//7
f 6//6 3//3 5//5
f 4//4 6//6 5//5
f 6//6 4//4 8//8
f 2//2 8//8 4//4
f 8//8 2//2 9//9
f 6//6 8//8 7//7
f 7//7 9//9 10//10
f 7//7 8//8 9//9
f 10//10 3//3 7//7
f 3//3 10//10 1//1
f 9//9 1//1 10//10
f 1//1 9//9 2//2
# 16 faces, 0 coords texture

# End of File
