####
#
# OBJ File Generated by Meshlab
#
####
# Object arm_roll_collision.obj
#
# Vertices: 47
# Faces: 90
#
####
vn 1.366688 2.541670 -3.760613
v 0.024912 0.057047 -0.107966
vn 2.963959 -0.865063 -2.653809
v 0.030689 -0.037457 -0.107514
vn 0.613741 -3.022422 -2.880595
v 0.018397 -0.047407 -0.107746
vn -2.075691 5.440513 0.916350
v -0.034163 0.053429 -0.032344
vn -0.450412 3.569976 -2.643332
v -0.028609 0.059770 -0.106619
vn -2.368696 3.153526 -1.891527
v -0.039398 0.057057 -0.105746
vn 5.658113 -1.824519 0.180195
v 0.030868 -0.036982 -0.034371
vn 2.899919 -3.463066 -1.954896
v 0.026704 -0.044743 -0.105703
vn 5.245227 -1.766951 1.266624
v 0.028063 -0.039069 0.005178
vn 3.134521 -3.695061 2.210466
v 0.020259 -0.045765 0.014566
vn 2.645537 -4.920639 0.246822
v 0.022172 -0.047720 -0.002685
vn 3.837019 0.422707 -2.776547
v 0.032088 0.045465 -0.106304
vn 3.778717 2.642645 -1.519775
v 0.030018 0.055146 -0.104854
vn 1.323592 5.376251 -0.993857
v 0.022994 0.059252 -0.104420
vn -0.587864 -1.890139 5.223450
v -0.003538 -0.039921 0.027774
vn -2.567606 1.020390 5.111462
v -0.013980 0.035996 0.025278
vn -3.044703 -1.335964 4.648193
v -0.016737 -0.037293 0.023688
vn -1.660410 -5.357030 1.287271
v -0.017344 -0.048802 0.011057
vn -0.320689 -5.103744 -2.197986
v -0.023183 -0.048895 -0.105924
vn 2.103323 5.234886 1.150480
v 0.020582 0.049225 0.004134
vn -1.247940 -2.807478 -2.733918
v -0.033934 -0.046605 -0.107660
vn -4.758999 -0.760186 -2.182015
v -0.043358 -0.035037 -0.105654
vn -4.981786 0.944529 -1.862747
v -0.043636 0.048369 -0.105887
vn -2.421126 -1.783201 -2.659040
v -0.040362 -0.041718 -0.107685
vn -4.370301 -3.514780 0.615611
v -0.040158 -0.043110 -0.032857
vn -5.838364 -0.934533 1.083449
v -0.043173 -0.032902 -0.030106
vn -4.060537 -2.988409 2.448670
v -0.024815 -0.043480 0.011892
vn -4.830867 2.502159 0.827028
v -0.042116 0.047312 -0.032247
vn -3.102334 3.165625 2.754750
v -0.022494 0.045029 0.015569
vn 4.856061 2.197152 1.225473
v 0.028462 0.042854 0.002416
vn 4.293817 1.233402 3.415599
v 0.023053 0.037361 0.017523
vn 1.642946 -3.103244 4.280045
v 0.009518 -0.044621 0.024068
vn 4.332592 -0.775662 3.826387
v 0.022064 -0.033898 0.018897
vn -1.452340 -4.322596 3.283391
v -0.010483 -0.046778 0.020924
vn 0.513446 -5.217445 2.140124
v 0.006703 -0.048434 0.019850
vn -0.899269 4.156148 3.066112
v -0.009445 0.047293 0.021485
vn -5.163209 -0.591933 3.115068
v -0.027404 -0.032019 0.012494
vn 6.164366 0.753273 0.239840
v 0.031662 0.039189 -0.045280
vn 1.613666 2.131740 4.596186
v 0.009649 0.040564 0.026331
vn 1.908243 -0.727518 5.579770
v 0.009109 -0.035392 0.026993
vn -4.996947 0.746593 3.227272
v -0.027155 0.035848 0.012823
vn 0.137053 6.236374 0.603788
v -0.000860 0.055612 -0.042933
vn -1.776128 -5.826037 0.277545
v -0.030482 -0.048188 -0.031432
vn -0.254888 1.422654 5.659912
v -0.000693 0.037599 0.028046
vn 2.010557 4.407881 2.404860
v 0.016461 0.047407 0.015929
vn -2.470514 1.156104 -4.457778
v -0.041437 0.050488 -0.107937
vn -5.650931 1.158713 1.690005
v -0.041403 0.041881 -0.023999
# 47 vertices, 0 vertices normals

f 1//1 2//2 3//3
f 4//4 5//5 6//6
f 7//7 8//8 2//2
f 9//9 10//10 11//11
f 12//12 1//1 13//13
f 14//14 13//13 1//1
f 15//15 16//16 17//17
f 18//18 19//19 3//3
f 14//14 20//20 13//13
f 3//3 21//21 1//1
f 22//22 23//23 24//24
f 22//22 25//25 26//26
f 26//26 25//25 27//27
f 28//28 29//29 4//4
f 21//21 25//25 24//24
f 9//9 30//30 31//31
f 32//32 10//10 33//33
f 15//15 34//34 35//35
f 4//4 29//29 36//36
f 17//17 37//37 27//27
f 18//18 27//27 25//25
f 12//12 38//38 7//7
f 39//39 40//40 33//33
f 17//17 41//41 37//37
f 13//13 38//38 12//12
f 15//15 32//32 40//40
f 4//4 36//36 42//42
f 5//5 14//14 1//1
f 34//34 15//15 17//17
f 18//18 25//25 43//43
f 23//23 26//26 28//28
f 16//16 15//15 44//44
f 31//31 45//45 39//39
f 20//20 30//30 13//13
f 21//21 46//46 1//1
f 45//45 30//30 20//20
f 37//37 47//47 26//26
f 18//18 34//34 27//27
f 34//34 18//18 35//35
f 20//20 14//14 42//42
f 45//45 20//20 42//42
f 11//11 18//18 3//3
f 32//32 15//15 35//35
f 18//18 11//11 35//35
f 1//1 46//46 5//5
f 27//27 37//37 26//26
f 30//30 7//7 38//38
f 11//11 8//8 7//7
f 9//9 31//31 33//33
f 10//10 9//9 33//33
f 18//18 43//43 19//19
f 40//40 39//39 44//44
f 19//19 21//21 3//3
f 31//31 39//39 33//33
f 47//47 29//29 28//28
f 9//9 7//7 30//30
f 44//44 39//39 36//36
f 3//3 8//8 11//11
f 11//11 10//10 35//35
f 24//24 46//46 21//21
f 45//45 36//36 39//39
f 41//41 17//17 16//16
f 30//30 38//38 13//13
f 23//23 22//22 26//26
f 3//3 2//2 8//8
f 43//43 25//25 21//21
f 27//27 34//34 17//17
f 46//46 24//24 23//23
f 40//40 32//32 33//33
f 35//35 10//10 32//32
f 5//5 4//4 42//42
f 25//25 22//22 24//24
f 43//43 21//21 19//19
f 28//28 6//6 23//23
f 16//16 29//29 41//41
f 29//29 47//47 41//41
f 15//15 40//40 44//44
f 14//14 5//5 42//42
f 45//45 31//31 30//30
f 7//7 9//9 11//11
f 23//23 6//6 46//46
f 29//29 16//16 36//36
f 5//5 46//46 6//6
f 42//42 36//36 45//45
f 37//37 41//41 47//47
f 12//12 7//7 2//2
f 36//36 16//16 44//44
f 6//6 28//28 4//4
f 12//12 2//2 1//1
f 26//26 47//47 28//28
# 90 faces, 0 coords texture

# End of File
