####
#
# OBJ File Generated by Meshlab
#
####
# Object arm_roll_light_collision.obj
#
# Vertices: 18
# Faces: 32
#
####
vn 1.570796 -1.570800 -1.570796
v 0.032355 -0.049079 -0.110159
vn 3.184430 3.055213 0.348878
v 0.032355 0.055495 -0.042229
vn 3.136931 -3.064535 0.120922
v 0.032355 -0.049079 -0.042229
vn 1.477196 1.563920 -1.423983
v 0.032355 0.061872 -0.110159
vn -1.479010 1.564479 -1.430106
v -0.044177 0.061872 -0.110159
vn -1.570796 -1.570796 -1.570796
v -0.044177 -0.049079 -0.110159
vn 2.989789 -2.782363 0.784708
v 0.028656 -0.049079 0.005677
vn 4.158797 2.534285 1.139567
v 0.028656 0.050858 0.005677
vn -0.583052 2.760568 3.180596
v -0.009038 0.051790 0.029131
vn 0.626441 -2.731380 3.011273
v 0.003068 -0.049079 0.029131
vn 0.626441 2.731380 3.011273
v 0.003068 0.051790 0.029131
vn -0.578703 -2.764290 3.031106
v -0.009038 -0.049079 0.029131
vn 2.139844 2.412276 2.237211
v 0.021448 0.051790 0.021137
vn 2.050094 -2.417299 2.104263
v 0.021448 -0.049079 0.021137
vn -2.041839 -2.320486 2.031829
v -0.023399 -0.049079 0.023440
vn -3.063526 2.762613 0.747226
v -0.044177 0.054916 -0.029754
vn -3.033932 -2.769205 0.571519
v -0.044177 -0.049079 -0.029754
vn -2.156476 2.312639 2.212488
v -0.023399 0.051790 0.023440
# 18 vertices, 0 vertices normals

f 1//1 2//2 3//3
f 2//2 1//1 4//4
f 5//5 1//1 6//6
f 1//1 5//5 4//4
f 7//7 2//2 8//8
f 2//2 7//7 3//3
f 9//9 10//10 11//11
f 10//10 9//9 12//12
f 13//13 7//7 8//8
f 7//7 13//13 14//14
f 15//15 16//16 17//17
f 16//16 15//15 18//18
f 6//6 16//16 5//5
f 16//16 6//6 17//17
f 11//11 14//14 13//13
f 14//14 11//11 10//10
f 4//4 5//5 2//2
f 2//2 13//13 8//8
f 13//13 9//9 11//11
f 9//9 16//16 18//18
f 2//2 5//5 16//16
f 2//2 9//9 13//13
f 2//2 16//16 9//9
f 3//3 7//7 1//1
f 1//1 17//17 6//6
f 17//17 12//12 15//15
f 12//12 14//14 10//10
f 1//1 7//7 14//14
f 1//1 12//12 17//17
f 1//1 14//14 12//12
f 18//18 12//12 9//9
f 12//12 18//18 15//15
# 32 faces, 0 coords texture

# End of File
