####
#
# OBJ File Generated by Meshlab
#
####
# Object head_light_collision.obj
#
# Vertices: 20
# Faces: 32
#
####
vn 1.352746 -1.659325 2.051663
v -0.103293 -0.099457 0.230467
vn 1.366768 1.227406 -1.157171
v -0.065975 0.100298 0.089345
vn 1.170344 1.659882 1.862245
v -0.103293 0.101410 0.230467
vn 1.410631 -1.227337 -1.176483
v -0.065975 -0.100569 0.089345
vn -1.687008 -1.470793 1.110250
v -0.131458 -0.101206 0.225746
vn -1.604785 -1.918740 -1.941691
v -0.095283 -0.101206 0.091833
vn -1.702667 1.918387 -2.023587
v -0.095283 0.099660 0.091833
vn -1.873629 1.470446 1.176268
v -0.131458 0.099660 0.225746
vn 1.912556 1.479951 -2.097243
v 0.030978 0.082442 -0.028561
vn -1.272582 -2.202361 -3.699288
v -0.019519 -0.079681 -0.028561
vn -1.258578 2.222539 -3.642859
v -0.019519 0.082442 -0.028561
vn 1.936267 -1.467053 -2.132183
v 0.030978 -0.079681 -0.028561
vn -2.535110 -2.608191 -1.907949
v -0.088771 -0.102694 0.037565
vn -1.495206 1.279360 1.083591
v -0.105462 0.105416 0.091396
vn -2.463580 2.620270 -1.733644
v -0.088771 0.104191 0.037565
vn -1.428750 -1.275017 1.010491
v -0.105462 -0.108045 0.091396
vn 1.469873 -1.555410 1.434536
v 0.030978 -0.108045 0.092688
vn 1.535851 1.561003 1.538925
v 0.030978 0.105416 0.092688
vn 2.846159 -3.029934 -0.703502
v 0.030978 -0.102694 0.031577
vn 2.807237 3.049032 -0.562267
v 0.030978 0.104191 0.032582
# 20 vertices, 0 vertices normals

f 1//1 2//2 3//3
f 2//2 1//1 4//4
f 4//4 5//5 6//6
f 5//5 4//4 1//1
f 3//3 7//7 8//8
f 7//7 3//3 2//2
f 3//3 5//5 1//1
f 5//5 3//3 8//8
f 7//7 4//4 6//6
f 4//4 7//7 2//2
f 5//5 7//7 6//6
f 7//7 5//5 8//8
f 9//9 10//10 11//11
f 10//10 9//9 12//12
f 13//13 14//14 15//15
f 14//14 13//13 16//16
f 17//17 14//14 16//16
f 14//14 17//17 18//18
f 13//13 11//11 10//10
f 11//11 13//13 15//15
f 16//16 19//19 17//17
f 19//19 16//16 13//13
f 14//14 20//20 15//15
f 20//20 14//14 18//18
f 11//11 20//20 9//9
f 20//20 11//11 15//15
f 18//18 19//19 20//20
f 19//19 18//18 17//17
f 9//9 19//19 12//12
f 19//19 9//9 20//20
f 10//10 19//19 13//13
f 19//19 10//10 12//12
# 32 faces, 0 coords texture

# End of File
