####
#
# OBJ File Generated by Meshlab
#
####
# Object head_pan_collision.obj
#
# Vertices: 32
# Faces: 60
#
####
vn -1.859897 2.679734 3.250757
v 0.006299 0.045548 0.021098
vn -4.678651 1.998625 2.125018
v -0.052555 0.028966 -0.031936
vn -5.096117 0.529023 1.993228
v -0.059463 0.010038 -0.036464
vn -2.074901 2.275079 -2.644405
v -0.041453 0.044207 -0.049989
vn -2.619973 1.674648 -2.870009
v -0.050607 0.032528 -0.049999
vn -0.992103 -2.954081 -2.968118
v -0.019031 -0.057103 -0.050000
vn 0.425448 -2.965192 -2.182011
v 0.012722 -0.061457 -0.049875
vn -1.497239 -5.793083 0.581421
v -0.016421 -0.058271 -0.043200
vn -2.181200 5.460861 0.246837
v -0.023637 0.056044 -0.043124
vn 0.333784 3.154358 -2.137934
v 0.012362 0.061623 -0.049622
vn 3.050630 0.204686 -3.806648
v 0.033306 0.014618 -0.050001
vn 4.168128 -2.461224 -0.032851
v 0.045179 -0.045231 -0.001922
vn 3.010551 -0.405657 -3.892428
v 0.031752 -0.027332 -0.049999
vn -0.425988 2.674495 3.619770
v 0.016834 0.045513 0.024757
vn 2.948094 2.461964 2.052803
v 0.040900 0.045514 0.014272
vn 3.244083 -2.511138 1.794412
v 0.042203 -0.045430 0.011906
vn 4.079320 2.426184 0.085331
v 0.045320 0.045229 -0.001412
vn 2.102526 -2.117605 -2.828231
v 0.023694 -0.055563 -0.049997
vn 1.720424 -2.553092 3.114943
v 0.032186 -0.045510 0.022080
vn -2.380929 -1.968393 -2.696140
v -0.046405 -0.038694 -0.049997
vn 1.299083 2.541802 3.346169
v 0.028682 0.045375 0.023711
vn -0.186684 -2.534392 3.579213
v 0.018616 -0.045365 0.025265
vn -3.531714 3.312475 2.345282
v -0.039473 0.043325 -0.022943
vn 2.016953 2.114344 -2.660972
v 0.023638 0.056327 -0.050002
vn -0.587002 2.966536 -2.381714
v -0.015154 0.058591 -0.050000
vn -4.691999 -1.990627 2.070457
v -0.053165 -0.028114 -0.032437
vn -2.966324 -0.733982 -2.638894
v -0.058904 -0.015475 -0.049997
vn -5.113648 -0.522273 2.165329
v -0.059224 -0.010462 -0.036211
vn -2.985052 0.767559 -2.747435
v -0.058285 0.016246 -0.049999
vn -1.756830 -2.656476 -2.554944
v -0.033905 -0.050166 -0.049905
vn -3.490139 -3.311285 2.364778
v -0.038933 -0.043346 -0.022359
vn -1.843646 -2.689917 3.244559
v 0.005965 -0.045555 0.020818
# 32 vertices, 0 vertices normals

f 1//1 2//2 3//3
f 2//2 4//4 5//5
f 6//6 7//7 8//8
f 9//9 1//1 10//10
f 11//11 12//12 13//13
f 10//10 1//1 14//14
f 15//15 16//16 17//17
f 7//7 18//18 12//12
f 16//16 19//19 7//7
f 6//6 20//20 13//13
f 21//21 14//14 22//22
f 4//4 2//2 23//23
f 24//24 17//17 11//11
f 14//14 21//21 10//10
f 21//21 15//15 10//10
f 25//25 4//4 9//9
f 26//26 27//27 20//20
f 11//11 13//13 24//24
f 28//28 27//27 26//26
f 4//4 20//20 29//29
f 19//19 15//15 21//21
f 16//16 15//15 19//19
f 25//25 9//9 10//10
f 6//6 30//30 20//20
f 8//8 30//30 6//6
f 14//14 1//1 22//22
f 17//17 12//12 11//11
f 19//19 22//22 7//7
f 12//12 16//16 7//7
f 17//17 10//10 15//15
f 24//24 10//10 17//17
f 13//13 20//20 24//24
f 20//20 31//31 26//26
f 16//16 12//12 17//17
f 29//29 2//2 5//5
f 29//29 27//27 3//3
f 20//20 25//25 24//24
f 26//26 31//31 32//32
f 32//32 31//31 8//8
f 9//9 4//4 23//23
f 24//24 25//25 10//10
f 20//20 30//30 31//31
f 18//18 6//6 13//13
f 25//25 20//20 4//4
f 8//8 22//22 32//32
f 8//8 7//7 22//22
f 28//28 3//3 27//27
f 30//30 8//8 31//31
f 22//22 1//1 32//32
f 4//4 29//29 5//5
f 22//22 19//19 21//21
f 1//1 9//9 23//23
f 26//26 32//32 28//28
f 29//29 20//20 27//27
f 7//7 6//6 18//18
f 18//18 13//13 12//12
f 2//2 1//1 23//23
f 29//29 3//3 2//2
f 32//32 1//1 28//28
f 3//3 28//28 1//1
# 60 faces, 0 coords texture

# End of File
