####
#
# OBJ File Generated by Meshlab
#
####
# Object tablet_collision.obj
#
# Vertices: 9
# Faces: 14
#
####
vn -1.758073 1.333821 -2.708140
v -0.065419 0.095000 0.089000
vn -2.332896 1.861488 0.926649
v -0.095001 0.099994 0.199402
vn 1.063348 1.372063 -0.849477
v -0.057210 0.099999 0.091200
vn -2.990607 -2.944662 -0.131703
v -0.093708 -0.100000 0.194576
vn 0.521081 -1.239048 1.599399
v -0.087454 -0.099976 0.204077
vn -4.308251 -0.839945 1.778801
v -0.095002 -0.095000 0.199405
vn 0.695883 1.280339 1.748369
v -0.087449 0.099963 0.204057
vn -1.112491 -1.571123 -1.925145
v -0.065419 -0.099989 0.089003
vn 1.921101 -1.570453 -1.109973
v -0.057208 -0.099998 0.091201
# 9 vertices, 0 vertices normals

f 1//1 2//2 3//3
f 4//4 5//5 6//6
f 5//5 7//7 2//2
f 5//5 2//2 6//6
f 1//1 3//3 8//8
f 8//8 3//3 9//9
f 2//2 4//4 6//6
f 8//8 4//4 1//1
f 1//1 4//4 2//2
f 7//7 5//5 3//3
f 9//9 3//3 5//5
f 8//8 9//9 5//5
f 4//4 8//8 5//5
f 7//7 3//3 2//2
# 14 faces, 0 coords texture

# End of File
