####
#
# OBJ File Generated by Meshlab
#
####
# Object wrist_roll_collision.obj
#
# Vertices: 45
# Faces: 86
#
####
vn 5.134275 1.150804 -1.988790
v 0.031464 0.032595 0.055248
vn 2.163998 1.154383 -4.521614
v 0.027100 0.029199 0.048737
vn 2.386797 3.407489 -3.026128
v 0.027827 0.039687 0.055533
vn 2.534935 -0.810383 -4.166846
v 0.027936 -0.027256 0.048465
vn 4.972604 -1.480921 -1.960580
v 0.031377 -0.035220 0.056729
vn 0.728474 -2.464477 2.648180
v -0.007248 -0.050626 0.140230
vn 3.858640 -1.774894 1.757297
v 0.031421 -0.044514 0.112876
vn 0.812356 2.472821 2.754607
v -0.007123 0.050528 0.140195
vn 4.444244 1.202174 2.109139
v 0.031446 0.043318 0.112958
vn -3.192385 0.009181 2.899877
v -0.047280 0.001242 0.138054
vn -6.140783 -1.042962 -0.181516
v -0.045340 -0.023171 0.096414
vn -2.886306 -1.422095 2.466975
v -0.042100 -0.039278 0.137924
vn -0.270226 6.069427 -1.267473
v -0.017824 0.047118 0.068424
vn -1.705650 5.628803 -0.417815
v -0.026911 0.050051 0.095473
vn 1.652818 5.268434 -1.598624
v 0.025701 0.045666 0.065854
vn -1.209429 -2.738600 2.425110
v -0.030944 -0.049500 0.138966
vn -4.273368 -3.733753 -0.465735
v -0.038870 -0.043291 0.085746
vn -2.315397 4.442031 -2.262887
v -0.031471 0.043659 0.061309
vn -0.888017 2.976539 2.730349
v -0.028565 0.049757 0.139101
vn 2.586385 3.836062 1.225534
v 0.028223 0.048820 0.112424
vn -3.050813 2.994837 2.044670
v -0.038885 0.044962 0.137079
vn -0.892791 2.915107 -5.072947
v -0.022194 0.036432 0.051225
vn -2.564201 1.276777 -5.082536
v -0.033435 0.027093 0.050888
vn -4.148263 1.887068 -3.097985
v -0.039137 0.031903 0.056957
vn -5.983363 0.120250 -1.178520
v -0.045967 0.001987 0.067583
vn -4.447648 0.010153 -3.787434
v -0.040794 -0.000133 0.054466
vn -4.751208 2.855151 -1.167851
v -0.040183 0.037215 0.065394
vn -2.345403 -0.709647 -5.341585
v -0.032526 -0.021807 0.049703
vn -4.068139 -2.234050 -2.912708
v -0.038709 -0.033526 0.057160
vn -1.853574 -4.942471 -1.783208
v -0.029373 -0.045438 0.063919
vn 0.073505 -5.556009 -2.223462
v 0.000289 -0.045799 0.061655
vn -0.428177 -3.589084 -4.638892
v -0.018798 -0.038820 0.052483
vn 1.607052 -3.406454 -4.097320
v 0.025619 -0.038148 0.053107
vn -2.019084 -3.258749 -4.113464
v -0.030917 -0.038196 0.054340
vn -0.443825 -1.146670 -5.989076
v -0.018047 -0.027363 0.048173
vn 4.521748 3.329287 -0.684478
v 0.029712 0.043746 0.069142
vn -5.665377 -1.403591 -1.451385
v -0.042017 -0.029192 0.062746
vn -0.625820 0.805055 -6.048626
v -0.021729 0.025456 0.048069
vn 3.005212 -3.632091 -1.541006
v 0.029358 -0.042657 0.061322
vn -5.969677 1.598854 -0.194106
v -0.043729 0.031690 0.094744
vn -1.261942 -5.917906 -0.398612
v -0.027199 -0.049631 0.096563
vn 2.260092 -5.242203 -0.625764
v 0.026420 -0.047114 0.077964
vn -3.071660 0.952744 2.815546
v -0.042407 0.037334 0.138393
vn 1.968979 -4.979571 1.066168
v 0.023656 -0.050354 0.112987
vn -0.690008 4.806181 -3.309243
v -0.022941 0.043493 0.057609
# 45 vertices, 0 vertices normals

f 1//1 2//2 3//3
f 4//4 1//1 5//5
f 6//6 7//7 8//8
f 7//7 9//9 8//8
f 10//10 11//11 12//12
f 13//13 14//14 15//15
f 16//16 12//12 17//17
f 18//18 14//14 13//13
f 5//5 1//1 7//7
f 8//8 14//14 19//19
f 9//9 20//20 8//8
f 20//20 14//14 8//8
f 21//21 19//19 14//14
f 22//22 23//23 24//24
f 25//25 24//24 26//26
f 18//18 24//24 27//27
f 26//26 28//28 29//29
f 29//29 30//30 17//17
f 31//31 32//32 33//33
f 34//34 28//28 35//35
f 25//25 11//11 10//10
f 15//15 36//36 3//3
f 29//29 37//37 26//26
f 23//23 38//38 28//28
f 4//4 35//35 38//38
f 21//21 14//14 27//27
f 5//5 39//39 33//33
f 10//10 40//40 25//25
f 30//30 41//41 17//17
f 32//32 35//35 4//4
f 31//31 33//33 39//39
f 7//7 42//42 39//39
f 40//40 43//43 21//21
f 4//4 38//38 2//2
f 20//20 9//9 36//36
f 27//27 25//25 40//40
f 36//36 9//9 1//1
f 23//23 26//26 24//24
f 44//44 30//30 31//31
f 26//26 37//37 25//25
f 28//28 38//38 35//35
f 11//11 17//17 12//12
f 13//13 15//15 45//45
f 18//18 22//22 24//24
f 28//28 34//34 29//29
f 37//37 11//11 25//25
f 22//22 38//38 23//23
f 5//5 33//33 4//4
f 32//32 30//30 34//34
f 16//16 41//41 44//44
f 44//44 42//42 7//7
f 32//32 4//4 33//33
f 20//20 36//36 15//15
f 27//27 40//40 21//21
f 44//44 6//6 16//16
f 19//19 43//43 12//12
f 32//32 34//34 35//35
f 41//41 16//16 17//17
f 3//3 45//45 15//15
f 27//27 24//24 25//25
f 43//43 10//10 12//12
f 31//31 30//30 32//32
f 19//19 21//21 43//43
f 11//11 37//37 17//17
f 15//15 14//14 20//20
f 45//45 22//22 18//18
f 29//29 34//34 30//30
f 1//1 3//3 36//36
f 42//42 44//44 31//31
f 40//40 10//10 43//43
f 6//6 44//44 7//7
f 7//7 39//39 5//5
f 6//6 8//8 19//19
f 41//41 30//30 44//44
f 6//6 19//19 16//16
f 39//39 42//42 31//31
f 14//14 18//18 27//27
f 12//12 16//16 19//19
f 17//17 37//37 29//29
f 45//45 18//18 13//13
f 3//3 22//22 45//45
f 1//1 9//9 7//7
f 23//23 28//28 26//26
f 2//2 38//38 22//22
f 1//1 4//4 2//2
f 22//22 3//3 2//2
# 86 faces, 0 coords texture

# End of File
