####
#
# OBJ File Generated by Meshlab
#
####
# Object xtion_collision.obj
#
# Vertices: 22
# Faces: 40
#
####
vn 1.082678 2.870050 2.853004
v 0.101168 0.012443 0.003252
vn -2.371677 1.302163 2.248400
v -0.065693 0.007281 0.003204
vn 2.376069 1.686238 2.414204
v 0.110151 0.006955 0.003204
vn 2.142116 -2.186188 2.704204
v 0.107816 -0.009306 0.003204
vn -0.000006 4.965000 0.770875
v 0.022000 0.029989 -0.014199
vn -1.077043 2.902547 2.849454
v -0.056878 0.012497 0.003206
vn 0.000060 5.028231 -3.424018
v 0.022001 0.027429 -0.019960
vn 0.821086 3.020811 -3.018742
v 0.100868 0.012499 -0.033296
vn -0.996221 2.943925 -2.900243
v -0.056868 0.012499 -0.033296
vn -5.405558 -1.217747 0.259266
v -0.068202 -0.002999 -0.010087
vn -1.752577 -2.155785 2.321645
v -0.061609 -0.011199 0.003204
vn -2.280064 1.311140 -2.052956
v -0.065714 0.008153 -0.033209
vn 2.889356 -0.543484 2.384368
v 0.112223 -0.002436 0.003172
vn 2.782901 0.131749 -2.224464
v 0.112553 0.000905 -0.033296
vn 1.852287 2.320486 -2.492625
v 0.106784 0.010403 -0.033296
vn -0.327247 -3.107126 2.931727
v -0.055500 -0.012500 0.003204
vn 0.392627 -3.091866 -2.888959
v 0.099500 -0.012500 -0.033296
vn 0.280215 -3.116288 2.949117
v 0.099500 -0.012500 0.003204
vn -0.423340 -3.083416 -2.878015
v -0.055500 -0.012500 -0.033296
vn 1.790968 -2.236015 -2.318037
v 0.106968 -0.010572 -0.033296
vn 1.033424 -2.910005 2.769527
v 0.103629 -0.011799 0.003204
vn -1.935303 -1.974114 -2.291170
v -0.062150 -0.010584 -0.033296
# 22 vertices, 0 vertices normals

f 1//1 2//2 3//3
f 3//3 2//2 4//4
f 1//1 5//5 6//6
f 7//7 8//8 9//9
f 2//2 10//10 11//11
f 12//12 2//2 6//6
f 4//4 13//13 3//3
f 3//3 14//14 15//15
f 9//9 5//5 7//7
f 7//7 5//5 8//8
f 6//6 2//2 1//1
f 16//16 17//17 18//18
f 16//16 19//19 17//17
f 2//2 11//11 4//4
f 15//15 8//8 1//1
f 1//1 8//8 5//5
f 3//3 15//15 1//1
f 12//12 10//10 2//2
f 12//12 6//6 9//9
f 9//9 6//6 5//5
f 13//13 14//14 3//3
f 19//19 16//16 11//11
f 4//4 20//20 13//13
f 18//18 17//17 20//20
f 11//11 21//21 4//4
f 16//16 18//18 21//21
f 11//11 16//16 21//21
f 20//20 21//21 18//18
f 20//20 4//4 21//21
f 19//19 11//11 22//22
f 17//17 19//19 22//22
f 14//14 22//22 15//15
f 22//22 8//8 15//15
f 10//10 12//12 22//22
f 9//9 8//8 22//22
f 9//9 22//22 12//12
f 14//14 20//20 22//22
f 20//20 17//17 22//22
f 10//10 22//22 11//11
f 14//14 13//13 20//20
# 40 faces, 0 coords texture

# End of File
