####
#
# OBJ File Generated by Meshlab
#
####
# Object bumper_collision.obj
#
# Vertices: 110
# Faces: 208
#
####
vn -0.442479 2.272668 -3.230778
v 0.042408 -0.212621 0.021497
vn 0.590672 -2.895913 -5.255027
v 0.042515 -0.217462 0.022692
vn -0.114597 1.170857 -1.618867
v -0.000014 -0.216799 0.021498
vn 0.147397 -1.447781 -2.648627
v -0.000014 -0.221735 0.022692
vn -0.114597 1.170859 1.618868
v -0.000014 -0.216799 0.036994
vn 0.147344 -1.448252 2.648164
v -0.000014 -0.221735 0.035799
vn 0.590671 -2.895910 5.255027
v 0.042515 -0.217462 0.035799
vn 1.165896 -2.784154 -5.208193
v 0.084233 -0.204807 0.022692
vn -0.442479 2.272671 3.230779
v 0.042408 -0.212621 0.036994
vn 1.165895 -2.784168 5.208537
v 0.084233 -0.204807 0.035799
vn 1.718712 -2.553136 -5.163770
v 0.122681 -0.184256 0.022692
vn -0.867239 2.118378 -3.223579
v 0.083200 -0.200247 0.021498
vn -0.557781 2.291401 -2.571414
v 0.120795 -0.180152 0.021498
vn -0.522282 2.069880 3.707186
v 0.120795 -0.180152 0.036994
vn -0.727673 2.818556 2.647616
v 0.120795 -0.180152 0.036994
vn -0.114597 -1.170853 -1.618869
v -0.000014 0.218102 0.021498
vn 0.147403 1.447784 -2.648625
v -0.000014 0.223038 0.022692
vn 0.590677 2.895918 -5.255033
v 0.042515 0.218765 0.022692
vn 2.220509 -2.207558 -5.122300
v 0.156381 -0.156600 0.022692
vn -0.692172 1.858917 -3.661263
v 0.120795 -0.180152 0.021498
vn -0.442480 -2.272651 -3.230776
v 0.042408 0.213924 0.021498
vn 1.165898 2.784156 -5.208197
v 0.084234 0.206110 0.022692
vn 2.644902 -1.758563 -5.087102
v 0.184037 -0.122900 0.022692
vn -1.578018 1.589513 -3.209449
v 0.153747 -0.153109 0.021498
vn -0.867242 -2.118369 -3.223578
v 0.083201 0.201550 0.021497
vn 1.718710 2.553028 -5.163450
v 0.122681 0.185559 0.022692
vn 2.967871 -1.223919 -5.060080
v 0.204588 -0.084452 0.022692
vn 0.231152 1.923903 -1.704122
v 0.180789 -0.120158 0.021498
vn -1.249959 -1.886956 -3.216335
v 0.120795 0.181455 0.021498
vn 2.220510 2.207555 -5.122298
v 0.156381 0.157902 0.022692
vn 3.170069 -0.627960 -5.043087
v 0.217243 -0.042734 0.022692
vn -1.036307 0.501488 -3.870805
v 0.200884 -0.082563 0.021498
vn -1.578024 -1.589516 -3.209452
v 0.153747 0.154412 0.021498
vn 2.644907 1.758557 -5.087096
v 0.184038 0.124203 0.022692
vn -1.841787 -1.238696 -3.203395
v 0.180790 0.121460 0.021498
vn 3.238968 -0.000014 -5.036868
v 0.221517 0.000651 0.022692
vn -0.615892 1.810913 -1.723475
v 0.213258 -0.041771 0.021498
vn -1.535684 1.671986 1.668211
v 0.213258 -0.041771 0.021498
vn 2.967878 1.223913 -5.060085
v 0.204588 0.085755 0.022692
vn -2.034418 -0.847861 -3.198635
v 0.200884 0.083866 0.021498
vn -2.151580 -0.430518 -3.195592
v 0.213258 0.043074 0.021498
vn 3.170098 0.627963 -5.043047
v 0.217243 0.044037 0.022692
vn -0.867241 2.118381 3.223581
v 0.083200 -0.200247 0.036994
vn -1.084444 -0.482308 3.375464
v 0.213258 -0.041771 0.036994
vn -2.190890 0.000002 -3.194548
v 0.217436 0.000651 0.021498
vn -2.151571 -0.430516 3.195590
v 0.213258 0.043074 0.036994
vn -2.034420 -0.847862 3.198635
v 0.200884 0.083866 0.036994
vn -1.841787 -1.238696 3.203395
v 0.180790 0.121460 0.036994
vn -1.249962 -1.886961 3.216336
v 0.120795 0.181455 0.036994
vn -1.578024 -1.589515 3.209452
v 0.153747 0.154412 0.036994
vn -0.867243 -2.118372 3.223579
v 0.083201 0.201550 0.036994
vn -0.442480 -2.272651 3.230776
v 0.042408 0.213924 0.036994
vn 1.718711 -2.553037 5.163443
v 0.122681 -0.184256 0.035799
vn -0.055818 1.723288 -1.499272
v 0.180789 -0.120158 0.021497
vn -0.998117 1.815227 -1.987067
v 0.200884 -0.082563 0.021498
vn 0.256310 -0.620244 -0.077630
v 0.153747 -0.153109 0.036994
vn -1.834330 1.192191 3.117718
v 0.153747 -0.153109 0.036994
vn -1.841862 1.238740 3.203061
v 0.180789 -0.120158 0.036994
vn -2.030861 0.823523 3.194453
v 0.200884 -0.082563 0.036994
vn 0.021996 -0.015571 -0.007489
v 0.200884 -0.082563 0.036994
vn -1.067134 1.608295 1.791437
v 0.213258 -0.041771 0.036994
vn -2.190895 0.000002 3.194550
v 0.217436 0.000651 0.036994
vn -0.114597 -1.170854 1.618869
v -0.000014 0.218102 0.036994
vn 1.001660 -5.072154 -2.189067
v 0.042620 -0.222218 0.027074
vn 1.001639 -5.072155 2.189067
v 0.042620 -0.222218 0.031418
vn 0.262392 -2.563251 1.107888
v -0.000014 -0.226580 0.031418
vn 1.978750 -4.816195 -2.152472
v 0.085248 -0.209287 0.027074
vn 1.978751 -4.816197 2.152471
v 0.085248 -0.209287 0.031418
vn 2.901417 -4.367379 -2.119479
v 0.124534 -0.188288 0.027074
vn 2.901417 -4.367380 2.119479
v 0.124534 -0.188288 0.031418
vn 3.721980 -3.739296 -2.089052
v 0.158969 -0.160029 0.027074
vn 3.721981 -3.739297 2.089051
v 0.158969 -0.160029 0.031418
vn 0.262445 2.562583 -1.106796
v -0.000014 0.227887 0.027074
vn 0.262445 2.562590 1.106790
v -0.000014 0.227887 0.031418
vn 1.001817 5.072145 2.189166
v 0.042621 0.223521 0.031418
vn 1.001815 5.072133 -2.189177
v 0.042621 0.223521 0.027074
vn 4.403948 -2.954508 -2.062954
v 0.187229 -0.125594 0.027074
vn 4.403948 -2.954508 2.062953
v 0.187229 -0.125594 0.031418
vn 2.220506 -2.207667 5.122625
v 0.156381 -0.156600 0.035799
vn 0.147404 1.447789 2.648618
v -0.000014 0.223038 0.035799
vn 1.978754 4.816199 2.152465
v 0.085248 0.210590 0.031418
vn 1.978750 4.816189 -2.152475
v 0.085248 0.210590 0.027074
vn 4.915817 -2.043715 -2.042878
v 0.208228 -0.086308 0.027074
vn 4.915817 -2.043715 2.042878
v 0.208228 -0.086308 0.031418
vn 2.644901 -1.758562 5.087102
v 0.184037 -0.122900 0.035799
vn 0.590679 2.895929 5.255021
v 0.042515 0.218765 0.035799
vn 2.901426 4.367379 2.119475
v 0.124535 0.189591 0.031418
vn 2.901421 4.367371 -2.119485
v 0.124535 0.189591 0.027074
vn 5.233216 -1.044599 -2.030239
v 0.221159 -0.043680 0.027074
vn 5.233217 -1.044598 2.030239
v 0.221159 -0.043680 0.031418
vn 2.967954 -1.223966 5.060411
v 0.204588 -0.084452 0.035799
vn 1.718713 2.553033 5.163440
v 0.122681 0.185559 0.035799
vn 1.165901 2.784163 5.208186
v 0.084234 0.206110 0.035799
vn 3.721997 3.739301 2.089038
v 0.158969 0.161331 0.031418
vn 3.721989 3.739294 -2.089048
v 0.158969 0.161331 0.027074
vn 5.340843 -0.000001 2.025855
v 0.225525 0.000651 0.031418
vn 3.170069 -0.628339 5.043391
v 0.217243 -0.042734 0.035799
vn 2.220517 2.207562 5.122285
v 0.156381 0.157902 0.035799
vn 4.403968 2.954509 2.062937
v 0.187229 0.126897 0.031418
vn 4.403959 2.954503 -2.062947
v 0.187229 0.126897 0.027074
vn 5.340834 -0.000003 -2.025866
v 0.225525 0.000651 0.027074
vn 5.233251 1.044604 -2.030209
v 0.221159 0.044983 0.027074
vn 5.233248 1.044602 2.030212
v 0.221159 0.044983 0.031418
vn 3.238975 -0.000003 5.037200
v 0.221517 0.000651 0.035799
vn 2.644915 1.758563 5.087084
v 0.184038 0.124203 0.035799
vn 4.915829 2.043706 2.042873
v 0.208228 0.087611 0.031418
vn 4.915818 2.043702 -2.042884
v 0.208228 0.087611 0.027074
vn 3.170102 0.627963 5.043051
v 0.217243 0.044037 0.035799
vn 2.967885 1.223916 5.060072
v 0.204588 0.085755 0.035799
vn 0.262425 -2.562485 -1.105243
v -0.000014 -0.226584 0.027074
# 110 vertices, 0 vertices normals

f 1//1 2//2 3//3
f 2//2 4//4 3//3
f 5//5 6//6 7//7
f 8//8 2//2 1//1
f 9//9 7//7 10//10
f 11//11 12//12 13//13
f 10//10 14//14 15//15
f 16//16 17//17 18//18
f 19//19 11//11 20//20
f 21//21 18//18 22//22
f 23//23 19//19 24//24
f 25//25 22//22 26//26
f 27//27 23//23 28//28
f 29//29 26//26 30//30
f 31//31 27//27 32//32
f 33//33 34//34 35//35
f 36//36 37//37 38//38
f 35//35 39//39 40//40
f 41//41 42//42 36//36
f 40//40 42//42 41//41
f 1//1 3//3 5//5
f 12//12 1//1 9//9
f 12//12 43//43 15//15
f 44//44 38//38 37//37
f 45//45 38//38 44//44
f 41//41 46//46 47//47
f 40//40 47//47 48//48
f 33//33 35//35 48//48
f 29//29 33//33 49//49
f 33//33 50//50 49//49
f 25//25 29//29 49//49
f 21//21 25//25 51//51
f 16//16 21//21 52//52
f 9//9 5//5 7//7
f 12//12 8//8 1//1
f 43//43 9//9 10//10
f 13//13 20//20 11//11
f 11//11 8//8 12//12
f 15//15 43//43 10//10
f 10//10 53//53 14//14
f 21//21 16//16 18//18
f 24//24 19//19 20//20
f 25//25 21//21 22//22
f 54//54 23//23 24//24
f 29//29 25//25 26//26
f 28//28 55//55 27//27
f 23//23 54//54 28//28
f 33//33 29//29 30//30
f 32//32 37//37 31//31
f 27//27 55//55 32//32
f 33//33 30//30 34//34
f 38//38 45//45 36//36
f 36//36 31//31 37//37
f 35//35 34//34 39//39
f 45//45 41//41 36//36
f 40//40 39//39 42//42
f 9//9 1//1 5//5
f 43//43 12//12 9//9
f 13//13 12//12 15//15
f 20//20 14//14 24//24
f 20//20 13//13 15//15
f 14//14 56//56 57//57
f 20//20 15//15 14//14
f 14//14 57//57 24//24
f 58//58 28//28 54//54
f 57//57 58//58 24//24
f 58//58 54//54 24//24
f 59//59 32//32 55//55
f 58//58 59//59 28//28
f 58//58 60//60 59//59
f 59//59 55//55 28//28
f 59//59 61//61 32//32
f 61//61 44//44 37//37
f 61//61 37//37 32//32
f 62//62 45//45 44//44
f 62//62 46//46 45//45
f 46//46 41//41 45//45
f 47//47 40//40 41//41
f 48//48 35//35 40//40
f 50//50 33//33 48//48
f 51//51 25//25 49//49
f 52//52 21//21 51//51
f 63//63 16//16 52//52
f 64//64 65//65 66//66
f 4//4 2//2 64//64
f 67//67 68//68 65//65
f 6//6 66//66 65//65
f 2//2 8//8 67//67
f 69//69 70//70 68//68
f 7//7 65//65 68//68
f 8//8 11//11 69//69
f 71//71 72//72 70//70
f 10//10 68//68 70//70
f 73//73 74//74 75//75
f 17//17 73//73 76//76
f 11//11 19//19 71//71
f 77//77 78//78 72//72
f 72//72 79//79 53//53
f 75//75 74//74 80//80
f 75//75 81//81 82//82
f 18//18 76//76 82//82
f 19//19 23//23 77//77
f 83//83 84//84 78//78
f 78//78 85//85 79//79
f 14//14 53//53 79//79
f 81//81 75//75 86//86
f 86//86 80//80 63//63
f 82//82 81//81 87//87
f 22//22 82//82 88//88
f 23//23 27//27 83//83
f 89//89 90//90 84//84
f 84//84 91//91 85//85
f 92//92 87//87 93//93
f 87//87 81//81 93//93
f 93//93 86//86 52//52
f 88//88 87//87 94//94
f 26//26 88//88 95//95
f 27//27 31//31 89//89
f 96//96 90//90 89//89
f 90//90 97//97 91//91
f 98//98 94//94 92//92
f 94//94 87//87 92//92
f 92//92 93//93 51//51
f 95//95 94//94 99//99
f 30//30 95//95 100//100
f 31//31 36//36 101//101
f 102//102 103//103 96//96
f 96//96 104//104 97//97
f 105//105 99//99 98//98
f 99//99 94//94 98//98
f 98//98 92//92 49//49
f 100//100 99//99 106//106
f 34//34 100//100 107//107
f 42//42 102//102 101//101
f 107//107 106//106 103//103
f 96//96 103//103 108//108
f 109//109 106//106 105//105
f 106//106 99//99 105//105
f 105//105 50//50 48//48
f 39//39 107//107 102//102
f 103//103 106//106 109//109
f 104//104 108//108 46//46
f 109//109 48//48 47//47
f 108//108 109//109 47//47
f 110//110 64//64 66//66
f 110//110 4//4 64//64
f 64//64 67//67 65//65
f 7//7 6//6 65//65
f 64//64 2//2 67//67
f 67//67 69//69 68//68
f 10//10 7//7 68//68
f 67//67 8//8 69//69
f 69//69 71//71 70//70
f 53//53 10//10 70//70
f 76//76 73//73 75//75
f 18//18 17//17 76//76
f 69//69 11//11 71//71
f 71//71 77//77 72//72
f 70//70 72//72 53//53
f 86//86 75//75 80//80
f 76//76 75//75 82//82
f 22//22 18//18 82//82
f 71//71 19//19 77//77
f 77//77 83//83 78//78
f 72//72 78//78 79//79
f 56//56 14//14 79//79
f 93//93 81//81 86//86
f 52//52 86//86 63//63
f 88//88 82//82 87//87
f 26//26 22//22 88//88
f 77//77 23//23 83//83
f 83//83 89//89 84//84
f 78//78 84//84 85//85
f 58//58 57//57 85//85
f 57//57 56//56 79//79
f 57//57 79//79 85//85
f 51//51 93//93 52//52
f 95//95 88//88 94//94
f 30//30 26//26 95//95
f 83//83 27//27 89//89
f 101//101 96//96 89//89
f 84//84 90//90 91//91
f 60//60 58//58 91//91
f 58//58 85//85 91//91
f 49//49 92//92 51//51
f 100//100 95//95 99//99
f 34//34 30//30 100//100
f 89//89 31//31 101//101
f 101//101 102//102 96//96
f 90//90 96//96 97//97
f 61//61 59//59 97//97
f 59//59 60//60 91//91
f 59//59 91//91 97//97
f 50//50 98//98 49//49
f 107//107 100//100 106//106
f 39//39 34//34 107//107
f 36//36 42//42 101//101
f 102//102 107//107 103//103
f 104//104 96//96 108//108
f 62//62 44//44 104//104
f 44//44 61//61 97//97
f 44//44 97//97 104//104
f 105//105 98//98 50//50
f 42//42 39//39 102//102
f 108//108 103//103 109//109
f 62//62 104//104 46//46
f 109//109 105//105 48//48
f 46//46 108//108 47//47
# 208 faces, 0 coords texture

# End of File
